<svg fill="none" height="800" viewBox="0 0 24 24" width="800" xmlns="http://www.w3.org/2000/svg"><path d="m3 8.2c0-1.12011 0-1.68016.21799-2.10798.19174-.37633.4977-.68229.87403-.87403.42782-.21799.98788-.21799 2.10798-.21799h3.47452c.48918 0 .73378 0 .96398.05526.204.04899.3991.1298.5781.23946.2018.12368.3748.29663.7207.64254l.1254.12548c.3459.34591.5189.51886.7207.64254.179.10966.3741.19047.5781.23946.2302.05526.4748.05526.964.05526h3.4745c1.1201 0 1.6802 0 2.108.21799.3763.19174.6823.4977.874.87403.218.42782.218.98788.218 2.10798v5.6c0 1.1201 0 1.6802-.218 2.108-.1917.3763-.4977.6823-.874.874-.4278.218-.9879.218-2.108.218h-11.6c-1.12011 0-1.68016 0-2.10798-.218-.37633-.1917-.68229-.4977-.87403-.874-.21799-.4278-.21799-.9879-.21799-2.108z" stroke="#183331" stroke-linecap="round" stroke-linejoin="round" stroke-width="2"/></svg>