<svg fill="none" height="800" viewBox="0 0 24 24" width="800" xmlns="http://www.w3.org/2000/svg"><path d="m20 9.33333v-3.33333c0-1.10457-.8954-2-2-2h-3.3333m5.3333 5.33333h-5.3333m5.3333 0v5.33337m-16-5.33337v-3.33333c0-1.10457.89543-2 2-2h3.33333m-5.33333 5.33333h5.33333m-5.33333 0v5.33337m10.6667-5.33337h-5.33337m5.33337 0v-5.33333m0 5.33333v5.33337m-5.33337-5.33337v-5.33333m0 5.33333v5.33337m10.66667 0v3.3333c0 1.1046-.8954 2-2 2h-3.3333m5.3333-5.3333h-5.3333m-10.6667 0v3.3333c0 1.1046.89543 2 2 2h3.33333m-5.33333-5.3333h5.33333m5.33337 0h-5.33337m5.33337 0v5.3333m-5.33337-5.3333v5.3333m0-16h5.33337m-5.33337 16h5.33337" stroke="#183331" stroke-linecap="round" stroke-linejoin="round" stroke-width="2"/></svg>