<svg fill="none" height="256" viewBox="0 0 24 24" width="256" xmlns="http://www.w3.org/2000/svg"><path d="m8 6.00067 13 .00072m-13 5.99931 13 .0008m-13 5.9992 13 .0008m-17.5-12.0015h.01m-.01 6h.01m-.01 6h.01m.49-12c0 .27614-.22386.5-.5.5s-.5-.22386-.5-.5.22386-.5.5-.5.5.22386.5.5zm0 6c0 .2761-.22386.5-.5.5s-.5-.2239-.5-.5.22386-.5.5-.5.5.2239.5.5zm0 6c0 .2761-.22386.5-.5.5s-.5-.2239-.5-.5.22386-.5.5-.5.5.2239.5.5z" stroke="#183331" stroke-linecap="round" stroke-linejoin="round" stroke-width="2"/></svg>