<!DOCTYPE svg PUBLIC "-//W3C//DTD SVG 1.1//EN" "http://www.w3.org/Graphics/SVG/1.1/DTD/svg11.dtd">
<!-- Uploaded to: SVG Repo, www.svgrepo.com, Transformed by: SVG Repo Mixer Tools -->
<svg height="256px" width="256px" version="1.1" id="Layer_1" xmlns="http://www.w3.org/2000/svg" xmlns:xlink="http://www.w3.org/1999/xlink" viewBox="-51.2 -51.2 614.40 614.40" xml:space="preserve" fill="#000000" stroke="#000000" stroke-width="0.00512">
<g id="SVGRepo_bgCarrier" stroke-width="0" transform="translate(0,0), scale(1)"/>
<g id="SVGRepo_tracerCarrier" stroke-linecap="round" stroke-linejoin="round" stroke="#CCCCCC" stroke-width="3.072"/>
<g id="SVGRepo_iconCarrier"> <path style="fill:#60bfd2;" d="M399.654,227.096l-7.584-7.584c-7.186-7.186-7.186-18.837,0-26.023l0,0 c8.653-8.653,7.114-23.084-3.17-29.717l-28.976-18.691c-10.921-7.045-12.556-22.371-3.366-31.56l0,0 c9.395-9.394,6.86-25.226-4.997-31.218l-26.514-13.4c-11.636-5.881-21.577-14.636-28.882-25.434l-12.61-18.641 c-13.193-19.503-41.915-19.503-55.108,0l-12.611,18.639c-7.305,10.799-17.247,19.553-28.882,25.434L160.44,82.3 c-11.858,5.993-14.391,21.823-4.997,31.218l0,0c9.189,9.189,7.556,24.516-3.366,31.56l-28.976,18.691 c-10.284,6.634-11.823,21.064-3.17,29.717l0,0c7.186,7.186,7.186,18.837,0,26.023l-7.584,7.584 c-15.379,15.379-15.379,40.314,0,55.694l32.663,32.663c4.461,4.461,4.461,11.695,0,16.157l0,0c-9.406,9.406-9.406,24.657,0,34.062 l82.455,82.455c15.76,15.76,41.311,15.76,57.07,0l82.455-82.455c9.406-9.406,9.406-24.657,0-34.062l0,0 c-4.461-4.461-4.461-11.695,0-16.157l32.663-32.663C415.033,267.411,415.033,242.476,399.654,227.096z"/> <g> <path style="fill:#005157;" d="M406.867,290.002c9.365-9.365,14.522-21.816,14.522-35.06c0-13.243-5.158-25.694-14.522-35.059 l-7.585-7.585c-3.198-3.197-3.198-8.401,0-11.6c6.314-6.315,9.392-15.031,8.445-23.911c-0.947-8.88-5.795-16.748-13.299-21.589 l-28.976-18.691c-2.603-1.679-4.283-4.407-4.611-7.486c-0.328-3.079,0.739-6.101,2.929-8.291c6.817-6.817,9.853-16.187,8.33-25.708 s-7.332-17.475-15.938-21.824l-26.514-13.401c-10.061-5.084-18.719-12.707-25.036-22.046l-12.609-18.641 C283.906,7.145,270.448,0,256,0s-27.906,7.145-36.001,19.111l-12.611,18.641c-6.316,9.338-14.973,16.961-25.035,22.047 L155.839,73.2c-8.605,4.349-14.415,12.303-15.938,21.824c-1.524,9.52,1.512,18.89,8.33,25.708c2.19,2.19,3.258,5.212,2.929,8.291 c-0.328,3.079-2.009,5.807-4.611,7.486L117.571,155.2c-7.505,4.842-12.351,12.711-13.299,21.592 c-0.946,8.88,2.132,17.595,8.446,23.908c3.198,3.198,3.198,8.402,0,11.6l-7.585,7.585c-9.365,9.365-14.522,21.815-14.522,35.059 s5.158,25.695,14.522,35.06l32.664,32.663c0.238,0.239,0.359,0.53,0.359,0.867s-0.12,0.627-0.36,0.867 c-13.366,13.367-13.366,35.118,0,48.487l82.456,82.455c7.097,7.098,15.934,11.819,25.548,13.778v32.68 c0,5.633,4.567,10.199,10.199,10.199c5.632,0,10.199-4.566,10.199-10.199V469.12c9.614-1.959,18.451-6.681,25.548-13.778 l82.456-82.456c13.367-13.368,13.367-35.119-0.001-48.486c-0.238-0.239-0.359-0.53-0.359-0.866c0-0.337,0.12-0.628,0.36-0.867 L406.867,290.002z M359.779,338.823c5.415,5.414,5.415,14.224,0,19.638l-82.457,82.456c-3.198,3.198-6.988,5.589-11.123,7.071 V282.893l44.967-44.966c3.983-3.983,3.983-10.441,0-14.424c-3.982-3.983-10.438-3.983-14.425,0l-30.543,30.541V108.383 c0-5.633-4.567-10.199-10.199-10.199c-5.632,0-10.199,4.566-10.199,10.199v41.925l-25.649-25.649 c-3.984-3.983-10.44-3.983-14.425,0c-3.983,3.983-3.983,10.441,0,14.425l40.074,40.073v148.287l-20.757-20.757 c-3.984-3.983-10.44-3.983-14.425,0c-3.983,3.983-3.983,10.441,0,14.425l35.182,35.181v91.697 c-4.135-1.482-7.926-3.874-11.123-7.072l-82.456-82.455c-5.415-5.415-5.415-14.225-0.001-19.639 c4.085-4.084,6.335-9.515,6.335-15.291c0-5.777-2.25-11.207-6.334-15.291l-32.663-32.663c-5.512-5.512-8.548-12.84-8.548-20.635 s3.036-15.123,8.548-20.635l7.585-7.584c5.401-5.403,8.377-12.585,8.377-20.224c0-7.639-2.975-14.821-8.377-20.224 c-2.648-2.648-2.757-5.724-2.587-7.322c0.29-2.72,1.774-5.13,4.073-6.613l28.977-18.691c7.807-5.036,12.852-13.225,13.837-22.465 c0.985-9.24-2.218-18.308-8.789-24.879c-2.139-2.138-3.089-5.075-2.613-8.06c0.478-2.985,2.3-5.479,4.998-6.843l26.514-13.4 c13.153-6.648,24.471-16.615,32.73-28.823l12.61-18.641c4.36-6.444,11.324-10.141,19.106-10.141 c7.782,0,14.746,3.697,19.106,10.143l12.609,18.64c8.259,12.208,19.576,22.175,32.73,28.822l26.514,13.401 c2.699,1.364,4.52,3.858,4.997,6.843c0.478,2.985-0.474,5.923-2.612,8.06c-6.57,6.57-9.774,15.638-8.789,24.878 c0.986,9.24,6.029,17.428,13.837,22.465l28.977,18.692c3.146,2.03,3.902,5.013,4.073,6.611c0.29,2.72-0.653,5.389-2.587,7.323 c-5.401,5.403-8.377,12.585-8.377,20.224s2.975,14.821,8.377,20.224l7.585,7.584c5.512,5.512,8.548,12.84,8.548,20.635 s-3.036,15.123-8.548,20.635l-32.662,32.663c-4.085,4.084-6.335,9.515-6.335,15.291 C353.445,329.308,355.695,334.739,359.779,338.823z"/> <path style="fill:#005157;" d="M197.641,279.286c-3.982-3.983-10.441-3.983-14.424,0c-3.983,3.984-3.983,10.441,0.001,14.424 l3.913,3.912c1.991,1.992,4.601,2.987,7.211,2.987c2.61,0,5.221-0.996,7.212-2.987c3.983-3.984,3.983-10.441-0.001-14.424 L197.641,279.286z"/> </g> </g>
</svg>