<svg fill="none" height="256" viewBox="0 0 24 24" width="256" xmlns="http://www.w3.org/2000/svg"><g fill="#275545"><path d="m5.70711 16.1359c-.39052.3905-.39052 1.0237 0 1.4142l4.89219 4.8874c.7812.7804 2.047.7801 2.8278-.0006l4.8903-4.8904c.3906-.3905.3906-1.0237 0-1.4142-.3905-.3905-1.0237-.3905-1.4142 0l-4.1856 4.1856c-.3905.3906-1.0237.3906-1.4142 0l-4.18208-4.182c-.39052-.3905-1.02369-.3905-1.41421 0z"/><path d="m18.3174 7.88675c.3906-.39052.3906-1.02368 0-1.41421l-4.8922-4.88745c-.7812-.780392-2.0469-.780082-2.8277.0007l-4.89039 4.89036c-.39053.39052-.39053 1.02369 0 1.41421.39052.39053 1.02369.39053 1.41421 0l4.18568-4.18564c.3905-.39053 1.0237-.39053 1.4142 0l4.182 4.18203c.3905.39053 1.0237.39053 1.4142 0z"/></g></svg>