<svg height="256" viewBox="0 0 512 512" width="256" xmlns="http://www.w3.org/2000/svg"><path d="m424.611 237.637s-13.846 5.749-27.407 2.673c3.657-10.974 11.861-106.132 11.861-106.132s-13.093 18.038-35.389 19.927c-6.451-17.569-25.156-34.222-34.084-52.422-20.596-41.982-15.722-67.393-15.722-67.393s-20.685 20.021-33.526 14.452l-34.345-38.543-35.98 39.271c-12.96 5.93-33.526-14.475-33.526-14.475s5.489 26.764-14.088 66.691c-8.88 18.111-27.516 34.697-33.989 52.159-21.996-.501-35.482-19.666-35.482-19.666s8.04 95.691 11.861 106.89c-13.573 3.816-27.407-3.431-27.407-3.431s9.87 55.427 19.788 71.746c-6.046 10.335-13.676 21.452-13.676 21.452s44.936 110.299 162.499 110.299 162.499-110.299 162.499-110.299-7.629-11.118-13.676-21.452c17.326-28.506 17.619-59.56 19.789-71.747z" fill="#92e8b3"/><g fill="#074641"><path d="m430.999 229.686c-2.907-2.335-6.856-2.898-10.298-1.468-1.744.724-6.226 2.114-11.403 2.609 3.868-26.579 8.798-82.664 9.928-95.772.394-4.565-2.305-8.831-6.598-10.433s-9.126-.143-11.818 3.566c-.089.123-8.023 10.596-21.145 14.462-4.233-7.975-10.021-15.524-15.663-22.885-5.706-7.443-11.608-15.142-15.254-22.573-18.535-37.785-14.883-60.853-14.862-60.981.836-4.363-1.253-8.761-5.159-10.879-3.904-2.119-8.738-1.461-11.94 1.619-6.948 6.683-16.581 12.361-20.953 12.622l-32.219-36.159c-1.919-2.153-4.66-3.393-7.544-3.414-.023 0-.047 0-.07 0-2.859 0-5.588 1.199-7.521 3.31l-33.99 37.098c-4.266-.104-13.905-5.844-20.813-12.653-3.191-3.167-8.089-3.909-12.044-1.771-3.954 2.14-6.05 6.576-5.147 10.98.045.24 4.318 24.423-13.239 60.23-3.635 7.415-9.535 15.099-15.24 22.529-5.686 7.407-11.52 15.005-15.754 23.036-12.78-3.267-20.913-14.36-20.979-14.45-2.651-3.767-7.494-5.289-11.824-3.717-4.329 1.573-7.066 5.851-6.68 10.44 1.111 13.226 5.98 69.96 9.919 96.704-5.875-.782-10.534-3.116-10.57-3.134-3.447-1.806-7.622-1.493-10.759.808-3.139 2.3-4.696 6.185-4.014 10.016.948 5.319 8.818 48.525 18.184 69.541-5.112 8.322-10.377 16.009-10.44 16.099-1.94 2.827-2.329 6.442-1.035 9.618.488 1.197 12.259 29.661 39.178 58.288 33.49 35.615 75.69 55.561 122.567 58.081v50.746c0 5.633 4.566 10.199 10.199 10.199s10.199-4.566 10.199-10.199v-50.747c46.877-2.52 89.077-22.467 122.567-58.081 26.92-28.627 38.691-57.091 39.178-58.288 1.294-3.176.905-6.791-1.035-9.618-.062-.09-5.208-7.603-10.266-15.816 12.531-23.33 15.261-47.044 16.941-61.637.382-3.321.713-6.19 1.069-8.189.654-3.668-.747-7.402-3.653-9.737zm-34.979 84.848c3.725 6.367 7.972 12.934 10.818 17.233-4.329 8.803-15.106 28.417-33.424 47.753-29.889 31.546-65.918 48.701-107.215 51.109v-113.243c22.002-4.467 43.013-15.614 62.528-33.221 4.183-3.774 4.514-10.223.74-14.405-3.775-4.184-10.224-4.513-14.405-.74-15.518 14.001-31.919 23.198-48.864 27.452v-145.693c24.519-7.251 32.595-30.654 32.947-31.712 1.782-5.343-1.107-11.119-6.451-12.901-5.343-1.782-11.12 1.107-12.901 6.451-.043.13-3.594 10.405-13.596 16.115v-22.303c0-5.633-4.566-10.199-10.199-10.199s-10.199 4.566-10.199 10.199v102.981c-25.833-8.856-41.918-43.764-42.204-44.394-2.301-5.137-8.327-7.441-13.469-5.142-5.142 2.298-7.449 8.33-5.151 13.472.939 2.103 22.244 48.822 60.824 57.205v145.014c-23.534-3.569-44.509-14.453-62.443-32.473-15.379-15.452-22.654-30.619-22.727-30.77-2.394-5.087-8.456-7.279-13.55-4.896-5.102 2.387-7.304 8.457-4.917 13.56.34.726 8.528 18.005 26.158 35.912 21.675 22.016 48.333 35.491 77.477 39.266v34.463c-41.297-2.409-77.327-19.563-107.215-51.109-18.323-19.34-29.1-38.958-33.424-47.752 2.847-4.3 7.094-10.866 10.818-17.234 1.892-3.234 1.858-7.246-.088-10.447-5.015-8.252-11.09-32.082-15.297-52.049 5.162.619 11.01.521 16.959-1.15 2.698-.758 4.966-2.59 6.269-5.07s1.531-5.384.626-8.036c-1.786-5.428-5.71-41.546-9.206-79.945 6.357 3.412 14.061 6.003 22.94 6.205 4.313.086 8.283-2.572 9.795-6.651 2.961-7.989 9.396-16.37 16.209-25.244 6.314-8.224 12.843-16.729 17.374-25.97 10.069-20.534 13.955-38.014 15.252-50.744 8.332 4.547 18.351 7.476 27.45 3.313 1.241-.568 2.355-1.379 3.276-2.385l28.354-30.947 26.835 30.115c.984 1.105 2.198 1.983 3.556 2.571 9.152 3.97 19.333.811 27.731-3.833 1.573 12.664 5.849 30.363 16.419 51.91 4.539 9.251 11.066 17.765 17.378 26 6.855 8.942 13.328 17.387 16.288 25.446 1.584 4.314 5.865 7.038 10.435 6.648 8.602-.728 16.042-3.407 22.196-6.729-3.551 38.243-7.49 74.212-9.205 79.547-.911 2.732-.623 5.722.79 8.23 1.414 2.509 3.822 4.304 6.629 4.94 6.245 1.417 12.391 1.378 17.692.753-1.782 14.218-5.269 34.544-16.532 53.077-1.94 3.202-1.973 7.213-.081 10.447z"/><path d="m353.473 237.962c-4.76-2.997-11.055-1.567-14.061 3.19-.008.013-.872 1.377-2.51 3.644-3.299 4.565-2.273 10.941 2.293 14.24 1.806 1.305 3.895 1.934 5.966 1.934 3.163 0 6.281-1.467 8.275-4.226 2.035-2.815 3.13-4.55 3.249-4.739 2.988-4.765 1.55-11.046-3.212-14.043z"/></g></svg>