<svg height="256" viewBox="0 0 512 512" width="256" xmlns="http://www.w3.org/2000/svg"><path d="m227.911 288.954h56.187v211.766h-56.187z" fill="#c5824b"/><path d="m407.456 144.956c0-39.263-24.925-72.685-59.809-85.355-5.899-2.143-10.639-6.759-12.814-12.647-7.926-21.455-28.551-36.755-52.76-36.755-6.051 0-11.875.961-17.335 2.732-5.665 1.838-11.811 1.838-17.475 0-5.46-1.772-11.284-2.732-17.335-2.732-24.21 0-44.834 15.3-52.759 36.755-2.174 5.888-6.915 10.504-12.814 12.647-34.884 12.67-59.809 46.092-59.809 85.355 0 29.52 14.087 55.747 35.903 72.333 7.987 6.072 11.797 16.323 9.42 26.07-1.419 5.816-2.101 11.92-1.944 18.209.909 36.256 30.273 65.985 66.516 67.315 15.444.567 29.803-3.942 41.561-11.978 11.758 8.037 26.117 12.545 41.561 11.978 36.243-1.33 65.607-31.059 66.516-67.315.158-6.289-.525-12.393-1.944-18.209-2.377-9.746 1.433-19.998 9.42-26.07 21.814-16.585 35.901-42.812 35.901-72.333z" fill="#94ca2f"/><g fill="#5e282d"><path d="m351.128 50.015c-3.151-1.144-5.603-3.548-6.728-6.595-9.594-25.971-34.642-43.42-62.328-43.42-6.987 0-13.879 1.086-20.483 3.23-3.605 1.17-7.575 1.17-11.178 0-6.604-2.144-13.496-3.23-20.483-3.23-27.686 0-52.733 17.449-62.326 43.42-1.126 3.047-3.578 5.45-6.729 6.594-39.791 14.453-66.526 52.607-66.526 94.942 0 31.837 14.554 61.161 39.93 80.451 4.854 3.691 7.085 9.788 5.683 15.534-1.657 6.795-2.407 13.82-2.232 20.881 1.047 41.786 34.579 75.719 76.338 77.251 1.219.045 2.433.053 3.644.043v152.485h-12.49c-5.633 0-10.199 4.566-10.199 10.199s4.565 10.2 10.198 10.2h101.562c5.633 0 10.199-4.566 10.199-10.199s-4.566-10.199-10.199-10.199h-12.49v-152.483c.215.002.429.01.646.01.996 0 1.997-.018 2.999-.055 41.759-1.532 75.291-35.465 76.338-77.252.176-7.06-.574-14.085-2.232-20.881-1.402-5.746.829-11.843 5.683-15.533 25.377-19.292 39.93-48.616 39.93-80.452 0-42.334-26.735-80.489-66.527-94.941zm-77.236 441.587h-35.785v-155.298c6.219-1.709 12.219-4.181 17.892-7.392 5.674 3.212 11.674 5.678 17.892 7.387v155.303zm91.487-282.433c-11.317 8.604-16.481 22.973-13.155 36.606 1.231 5.048 1.788 10.275 1.656 15.536-.778 31.036-25.681 56.239-56.693 57.378-10.967.404-21.575-2.168-30.987-7.456v-23.103l21.676-21.676c3.983-3.983 3.983-10.441 0-14.425-3.983-3.983-10.441-3.983-14.425 0l-7.253 7.254v-51.729l28.346-28.346c3.983-3.983 3.984-10.441 0-14.424-3.984-3.984-10.441-3.983-14.424 0l-13.922 13.922v-76.411l21.676-21.677c3.983-3.983 3.983-10.441 0-14.424s-10.441-3.983-14.424 0l-17.45 17.452-17.452-17.453c-3.984-3.983-10.441-3.983-14.424 0s-3.984 10.441 0 14.424l21.676 21.677v76.411l-39.043-39.042c-3.982-3.983-10.441-3.983-14.424 0s-3.983 10.441 0 14.424l53.466 53.466v51.728l-7.253-7.253c-3.983-3.983-10.441-3.983-14.425 0-3.983 3.983-3.983 10.441 0 14.425l21.677 21.676v23.103c-9.414 5.286-20.029 7.853-30.987 7.456-31.013-1.138-55.916-26.341-56.693-57.377-.132-5.263.425-10.49 1.656-15.536 3.325-13.633-1.838-28.002-13.156-36.606-20.258-15.401-31.877-38.805-31.877-64.213 0-33.785 21.336-64.235 53.092-75.769 8.802-3.196 15.691-10.013 18.9-18.699 6.647-17.999 24.005-30.091 43.192-30.091 4.846 0 9.62.752 14.187 2.234 7.665 2.487 16.107 2.487 23.771 0 4.567-1.483 9.34-2.234 14.187-2.234 19.186 0 36.544 12.092 43.193 30.09 3.209 8.687 10.097 15.503 18.899 18.699 31.756 11.534 53.092 41.984 53.092 75.769.003 25.409-11.616 48.815-31.875 64.214z"/><path d="m305.242 139.663-2.431 2.43c-3.984 3.983-3.984 10.44-.001 14.424 1.992 1.992 4.602 2.988 7.213 2.988 2.61 0 5.22-.995 7.211-2.986l2.431-2.43c3.984-3.983 3.984-10.44.001-14.424s-10.441-3.986-14.424-.002z"/></g></svg>