<!DOCTYPE svg PUBLIC "-//W3C//DTD SVG 1.1//EN" "http://www.w3.org/Graphics/SVG/1.1/DTD/svg11.dtd">
<!-- Uploaded to: SVG Repo, www.svgrepo.com, Transformed by: SVG Repo Mixer Tools -->
<svg version="1.1" id="Layer_1" xmlns="http://www.w3.org/2000/svg" xmlns:xlink="http://www.w3.org/1999/xlink" viewBox="0 0 512 512" xml:space="preserve" width="256px" height="256px" fill="#000000">
<g id="SVGRepo_bgCarrier" stroke-width="0"/>
<g id="SVGRepo_tracerCarrier" stroke-linecap="round" stroke-linejoin="round" stroke="#CCCCCC" stroke-width="2.048"/>
<g id="SVGRepo_iconCarrier"> <rect x="227.911" y="288.954" style="fill:#663914;" width="56.187" height="211.766"/> <path style="fill:#1a611e;" d="M407.456,144.956c0-39.263-24.925-72.685-59.809-85.355c-5.899-2.143-10.639-6.759-12.814-12.647 c-7.926-21.455-28.551-36.755-52.76-36.755c-6.051,0-11.875,0.961-17.335,2.732c-5.665,1.838-11.811,1.838-17.475,0 c-5.46-1.772-11.284-2.732-17.335-2.732c-24.21,0-44.834,15.3-52.759,36.755c-2.174,5.888-6.915,10.504-12.814,12.647 c-34.884,12.67-59.809,46.092-59.809,85.355c0,29.52,14.087,55.747,35.903,72.333c7.987,6.072,11.797,16.323,9.42,26.07 c-1.419,5.816-2.101,11.92-1.944,18.209c0.909,36.256,30.273,65.985,66.516,67.315c15.444,0.567,29.803-3.942,41.561-11.978 c11.758,8.037,26.117,12.545,41.561,11.978c36.243-1.33,65.607-31.059,66.516-67.315c0.158-6.289-0.525-12.393-1.944-18.209 c-2.377-9.746,1.433-19.998,9.42-26.07C393.369,200.704,407.456,174.477,407.456,144.956z"/> <g> <path style="fill:#330a0f;" d="M351.128,50.015c-3.151-1.144-5.603-3.548-6.728-6.595C334.806,17.449,309.758,0,282.072,0 c-6.987,0-13.879,1.086-20.483,3.23c-3.605,1.17-7.575,1.17-11.178,0C243.807,1.086,236.915,0,229.928,0 c-27.686,0-52.733,17.449-62.326,43.42c-1.126,3.047-3.578,5.45-6.729,6.594c-39.791,14.453-66.526,52.607-66.526,94.942 c0,31.837,14.554,61.161,39.93,80.451c4.854,3.691,7.085,9.788,5.683,15.534c-1.657,6.795-2.407,13.82-2.232,20.881 c1.047,41.786,34.579,75.719,76.338,77.251c1.219,0.045,2.433,0.053,3.644,0.043v152.485h-12.49 c-5.633,0-10.199,4.566-10.199,10.199S199.586,512,205.219,512h101.562c5.633,0,10.199-4.566,10.199-10.199 s-4.566-10.199-10.199-10.199h-12.49V339.119c0.215,0.002,0.429,0.01,0.646,0.01c0.996,0,1.997-0.018,2.999-0.055 c41.759-1.532,75.291-35.465,76.338-77.252c0.176-7.06-0.574-14.085-2.232-20.881c-1.402-5.746,0.829-11.843,5.683-15.533 c25.377-19.292,39.93-48.616,39.93-80.452C417.655,102.622,390.92,64.467,351.128,50.015z M273.892,491.602h-35.785V336.304 c6.219-1.709,12.219-4.181,17.892-7.392c5.674,3.212,11.674,5.678,17.892,7.387V491.602z M365.379,209.169 c-11.317,8.604-16.481,22.973-13.155,36.606c1.231,5.048,1.788,10.275,1.656,15.536c-0.778,31.036-25.681,56.239-56.693,57.378 c-10.967,0.404-21.575-2.168-30.987-7.456V288.13l21.676-21.676c3.983-3.983,3.983-10.441,0-14.425 c-3.983-3.983-10.441-3.983-14.425,0l-7.253,7.254v-51.729l28.346-28.346c3.983-3.983,3.984-10.441,0-14.424 c-3.984-3.984-10.441-3.983-14.424,0l-13.922,13.922v-76.411l21.676-21.677c3.983-3.983,3.983-10.441,0-14.424 c-3.983-3.983-10.441-3.983-14.424,0L256,83.646l-17.452-17.453c-3.984-3.983-10.441-3.983-14.424,0s-3.984,10.441,0,14.424 l21.676,21.677v76.411l-39.043-39.042c-3.982-3.983-10.441-3.983-14.424,0s-3.983,10.441,0,14.424l53.466,53.466v51.728 l-7.253-7.253c-3.983-3.983-10.441-3.983-14.425,0c-3.983,3.983-3.983,10.441,0,14.425l21.677,21.676v23.103 c-9.414,5.286-20.029,7.853-30.987,7.456c-31.013-1.138-55.916-26.341-56.693-57.377c-0.132-5.263,0.425-10.49,1.656-15.536 c3.325-13.633-1.838-28.002-13.156-36.606c-20.258-15.401-31.877-38.805-31.877-64.213c0-33.785,21.336-64.235,53.092-75.769 c8.802-3.196,15.691-10.013,18.9-18.699c6.647-17.999,24.005-30.091,43.192-30.091c4.846,0,9.62,0.752,14.187,2.234 c7.665,2.487,16.107,2.487,23.771,0c4.567-1.483,9.34-2.234,14.187-2.234c19.186,0,36.544,12.092,43.193,30.09 c3.209,8.687,10.097,15.503,18.899,18.699c31.756,11.534,53.092,41.984,53.092,75.769 C397.257,170.364,385.638,193.77,365.379,209.169z"/> <path style="fill:#330a0f;" d="M305.242,139.663l-2.431,2.43c-3.984,3.983-3.984,10.44-0.001,14.424 c1.992,1.992,4.602,2.988,7.213,2.988c2.61,0,5.22-0.995,7.211-2.986l2.431-2.43c3.984-3.983,3.984-10.44,0.001-14.424 C315.683,135.681,309.225,135.679,305.242,139.663z"/> </g> </g>
</svg>